<mxfile host="app.diagrams.net" modified="2024-07-05T16:37:42.166Z" agent="Mozilla/5.0 (X11; Linux x86_64; rv:127.0) Gecko/20100101 Firefox/127.0" etag="vpUgiJYHtnZ33T9t8ad4" version="24.6.4" type="google">
  <diagram name="PÃ¡gina-1" id="IV-rjdHvHGz0G67KXJbl">
    <mxGraphModel grid="1" page="1" gridSize="10" guides="1" tooltips="1" connect="1" arrows="1" fold="1" pageScale="1" pageWidth="827" pageHeight="1169" math="0" shadow="0">
      <root>
        <mxCell id="0" />
        <mxCell id="1" parent="0" />
        <mxCell id="uHQS6SmP5Ppz4d3gWPXU-15" value="" style="group" vertex="1" connectable="0" parent="1">
          <mxGeometry x="630" y="150" width="24" height="100" as="geometry" />
        </mxCell>
        <mxCell id="uHQS6SmP5Ppz4d3gWPXU-16" value="" style="rounded=0;whiteSpace=wrap;html=1;strokeColor=none;" vertex="1" parent="uHQS6SmP5Ppz4d3gWPXU-15">
          <mxGeometry x="4" width="16" height="100" as="geometry" />
        </mxCell>
        <mxCell id="dmeGNJuSnEq-PpqVmAJT-2" value="21" style="rounded=0;whiteSpace=wrap;html=1;fontSize=10;" vertex="1" parent="1">
          <mxGeometry x="319" y="210" width="40" height="20" as="geometry" />
        </mxCell>
        <mxCell id="dmeGNJuSnEq-PpqVmAJT-4" value="43" style="rounded=0;whiteSpace=wrap;html=1;fontSize=10;" vertex="1" parent="1">
          <mxGeometry x="319" y="230" width="40" height="20" as="geometry" />
        </mxCell>
        <mxCell id="dmeGNJuSnEq-PpqVmAJT-5" value="65" style="rounded=0;whiteSpace=wrap;html=1;fontSize=10;" vertex="1" parent="1">
          <mxGeometry x="319" y="250" width="40" height="20" as="geometry" />
        </mxCell>
        <mxCell id="dmeGNJuSnEq-PpqVmAJT-6" value="87" style="rounded=0;whiteSpace=wrap;html=1;fontSize=10;" vertex="1" parent="1">
          <mxGeometry x="319" y="270" width="40" height="20" as="geometry" />
        </mxCell>
        <mxCell id="dmeGNJuSnEq-PpqVmAJT-9" value="A9" style="rounded=0;whiteSpace=wrap;html=1;fontSize=10;" vertex="1" parent="1">
          <mxGeometry x="319" y="290" width="40" height="20" as="geometry" />
        </mxCell>
        <mxCell id="dmeGNJuSnEq-PpqVmAJT-10" value="CB" style="rounded=0;whiteSpace=wrap;html=1;fontSize=10;" vertex="1" parent="1">
          <mxGeometry x="319" y="310" width="40" height="20" as="geometry" />
        </mxCell>
        <mxCell id="dmeGNJuSnEq-PpqVmAJT-11" value="ED" style="rounded=0;whiteSpace=wrap;html=1;fontSize=10;" vertex="1" parent="1">
          <mxGeometry x="319" y="330" width="40" height="20" as="geometry" />
        </mxCell>
        <mxCell id="dmeGNJuSnEq-PpqVmAJT-12" value="0F" style="rounded=0;whiteSpace=wrap;html=1;fontSize=10;" vertex="1" parent="1">
          <mxGeometry x="319" y="350" width="40" height="20" as="geometry" />
        </mxCell>
        <mxCell id="dmeGNJuSnEq-PpqVmAJT-14" value="..." style="rounded=0;whiteSpace=wrap;html=1;fontSize=10;" vertex="1" parent="1">
          <mxGeometry x="319" y="370" width="40" height="20" as="geometry" />
        </mxCell>
        <mxCell id="dmeGNJuSnEq-PpqVmAJT-17" value="16r FEDCBA987654321" style="text;whiteSpace=wrap;html=1;" vertex="1" parent="1">
          <mxGeometry x="447" y="180" width="160" height="40" as="geometry" />
        </mxCell>
        <mxCell id="dmeGNJuSnEq-PpqVmAJT-18" value="&lt;div&gt;addresses&lt;/div&gt;" style="text;whiteSpace=wrap;html=1;" vertex="1" parent="1">
          <mxGeometry x="355" y="151" width="60" height="30" as="geometry" />
        </mxCell>
        <mxCell id="dmeGNJuSnEq-PpqVmAJT-19" value="a" style="text;whiteSpace=wrap;html=1;flipV=1;align=center;" vertex="1" parent="1">
          <mxGeometry x="377.5" y="206" width="15" height="25" as="geometry" />
        </mxCell>
        <mxCell id="dmeGNJuSnEq-PpqVmAJT-20" value="a+1" style="text;whiteSpace=wrap;html=1;flipV=1;align=center;" vertex="1" parent="1">
          <mxGeometry x="377.5" y="225" width="15" height="25" as="geometry" />
        </mxCell>
        <mxCell id="dmeGNJuSnEq-PpqVmAJT-21" value="a+2" style="text;whiteSpace=wrap;html=1;flipV=1;align=center;" vertex="1" parent="1">
          <mxGeometry x="377.5" y="245" width="15" height="25" as="geometry" />
        </mxCell>
        <mxCell id="dmeGNJuSnEq-PpqVmAJT-22" value="&lt;div&gt;a+3&lt;/div&gt;" style="text;whiteSpace=wrap;html=1;flipV=1;align=center;" vertex="1" parent="1">
          <mxGeometry x="377.5" y="265" width="15" height="25" as="geometry" />
        </mxCell>
        <mxCell id="dmeGNJuSnEq-PpqVmAJT-23" value="a+4" style="text;whiteSpace=wrap;html=1;flipV=1;align=center;" vertex="1" parent="1">
          <mxGeometry x="377.5" y="285.5" width="15" height="25" as="geometry" />
        </mxCell>
        <mxCell id="dmeGNJuSnEq-PpqVmAJT-24" value="a+5" style="text;whiteSpace=wrap;html=1;flipV=1;align=center;" vertex="1" parent="1">
          <mxGeometry x="377.5" y="305" width="15" height="25" as="geometry" />
        </mxCell>
        <mxCell id="dmeGNJuSnEq-PpqVmAJT-25" value="a+6" style="text;whiteSpace=wrap;html=1;flipV=1;align=center;" vertex="1" parent="1">
          <mxGeometry x="377.5" y="325" width="15" height="25" as="geometry" />
        </mxCell>
        <mxCell id="dmeGNJuSnEq-PpqVmAJT-26" value="a+7" style="text;whiteSpace=wrap;html=1;flipV=1;align=center;" vertex="1" parent="1">
          <mxGeometry x="377.5" y="345" width="15" height="25" as="geometry" />
        </mxCell>
        <mxCell id="dmeGNJuSnEq-PpqVmAJT-27" value="a+8" style="text;whiteSpace=wrap;html=1;flipV=1;align=center;" vertex="1" parent="1">
          <mxGeometry x="377.5" y="367.5" width="15" height="25" as="geometry" />
        </mxCell>
        <mxCell id="dmeGNJuSnEq-PpqVmAJT-16" value="16r FEDCBA987654321" style="text;whiteSpace=wrap;html=1;connectable=0;" vertex="1" parent="1">
          <mxGeometry x="171" y="181" width="136" height="30" as="geometry" />
        </mxCell>
        <mxCell id="dmeGNJuSnEq-PpqVmAJT-28" value="Litte-endian" style="text;whiteSpace=wrap;html=1;" vertex="1" parent="1">
          <mxGeometry x="210" y="150" width="70" height="30" as="geometry" />
        </mxCell>
        <mxCell id="xkA8Z7V0szeuS40BgDB5-9" value="" style="endArrow=none;html=1;rounded=0;" edge="1" parent="1">
          <mxGeometry width="50" height="50" relative="1" as="geometry">
            <mxPoint x="300" y="202" as="sourcePoint" />
            <mxPoint x="290" y="202" as="targetPoint" />
          </mxGeometry>
        </mxCell>
        <mxCell id="xkA8Z7V0szeuS40BgDB5-11" value="" style="endArrow=classic;html=1;rounded=0;entryX=0;entryY=0.5;entryDx=0;entryDy=0;" edge="1" parent="1" target="dmeGNJuSnEq-PpqVmAJT-2">
          <mxGeometry width="50" height="50" relative="1" as="geometry">
            <mxPoint x="295" y="202" as="sourcePoint" />
            <mxPoint x="320" y="220" as="targetPoint" />
            <Array as="points">
              <mxPoint x="295" y="220" />
            </Array>
          </mxGeometry>
        </mxCell>
        <mxCell id="xkA8Z7V0szeuS40BgDB5-12" value="" style="endArrow=none;html=1;rounded=0;" edge="1" parent="1">
          <mxGeometry width="50" height="50" relative="1" as="geometry">
            <mxPoint x="287" y="202" as="sourcePoint" />
            <mxPoint x="277" y="202" as="targetPoint" />
          </mxGeometry>
        </mxCell>
        <mxCell id="xkA8Z7V0szeuS40BgDB5-13" value="" style="endArrow=classic;html=1;rounded=0;entryX=0;entryY=0.5;entryDx=0;entryDy=0;" edge="1" parent="1" target="dmeGNJuSnEq-PpqVmAJT-4">
          <mxGeometry width="50" height="50" relative="1" as="geometry">
            <mxPoint x="282" y="202" as="sourcePoint" />
            <mxPoint x="319" y="243" as="targetPoint" />
            <Array as="points">
              <mxPoint x="282" y="240" />
            </Array>
          </mxGeometry>
        </mxCell>
        <mxCell id="xkA8Z7V0szeuS40BgDB5-14" value="0F" style="rounded=0;whiteSpace=wrap;html=1;fontSize=10;" vertex="1" parent="1">
          <mxGeometry x="410" y="210" width="40" height="20" as="geometry" />
        </mxCell>
        <mxCell id="xkA8Z7V0szeuS40BgDB5-15" value="ED" style="rounded=0;whiteSpace=wrap;html=1;fontSize=10;" vertex="1" parent="1">
          <mxGeometry x="410" y="230" width="40" height="20" as="geometry" />
        </mxCell>
        <mxCell id="xkA8Z7V0szeuS40BgDB5-16" value="CB" style="rounded=0;whiteSpace=wrap;html=1;fontSize=10;" vertex="1" parent="1">
          <mxGeometry x="410" y="250" width="40" height="20" as="geometry" />
        </mxCell>
        <mxCell id="xkA8Z7V0szeuS40BgDB5-17" value="A9" style="rounded=0;whiteSpace=wrap;html=1;fontSize=10;" vertex="1" parent="1">
          <mxGeometry x="410" y="270" width="40" height="20" as="geometry" />
        </mxCell>
        <mxCell id="xkA8Z7V0szeuS40BgDB5-18" value="87" style="rounded=0;whiteSpace=wrap;html=1;fontSize=10;" vertex="1" parent="1">
          <mxGeometry x="410" y="290" width="40" height="20" as="geometry" />
        </mxCell>
        <mxCell id="xkA8Z7V0szeuS40BgDB5-19" value="65" style="rounded=0;whiteSpace=wrap;html=1;fontSize=10;" vertex="1" parent="1">
          <mxGeometry x="410" y="310" width="40" height="20" as="geometry" />
        </mxCell>
        <mxCell id="xkA8Z7V0szeuS40BgDB5-20" value="43" style="rounded=0;whiteSpace=wrap;html=1;fontSize=10;" vertex="1" parent="1">
          <mxGeometry x="410" y="330" width="40" height="20" as="geometry" />
        </mxCell>
        <mxCell id="xkA8Z7V0szeuS40BgDB5-21" value="21" style="rounded=0;whiteSpace=wrap;html=1;fontSize=10;" vertex="1" parent="1">
          <mxGeometry x="410" y="350" width="40" height="20" as="geometry" />
        </mxCell>
        <mxCell id="xkA8Z7V0szeuS40BgDB5-22" value="..." style="rounded=0;whiteSpace=wrap;html=1;fontSize=10;" vertex="1" parent="1">
          <mxGeometry x="410" y="370" width="40" height="20" as="geometry" />
        </mxCell>
        <mxCell id="xkA8Z7V0szeuS40BgDB5-23" value="Big-endian" style="text;whiteSpace=wrap;html=1;" vertex="1" parent="1">
          <mxGeometry x="490" y="151" width="70" height="30" as="geometry" />
        </mxCell>
        <mxCell id="q6aTFTW4SAQcoKAlonwN-1" value="" style="endArrow=classic;html=1;rounded=0;" edge="1" parent="1" target="dmeGNJuSnEq-PpqVmAJT-5">
          <mxGeometry width="50" height="50" relative="1" as="geometry">
            <mxPoint x="269" y="202.5" as="sourcePoint" />
            <mxPoint x="320" y="260" as="targetPoint" />
            <Array as="points">
              <mxPoint x="269" y="260" />
            </Array>
          </mxGeometry>
        </mxCell>
        <mxCell id="q6aTFTW4SAQcoKAlonwN-2" value="" style="endArrow=none;html=1;rounded=0;" edge="1" parent="1">
          <mxGeometry width="50" height="50" relative="1" as="geometry">
            <mxPoint x="274" y="202" as="sourcePoint" />
            <mxPoint x="264" y="202" as="targetPoint" />
          </mxGeometry>
        </mxCell>
        <mxCell id="q6aTFTW4SAQcoKAlonwN-3" value="" style="endArrow=none;html=1;rounded=0;" edge="1" parent="1">
          <mxGeometry width="50" height="50" relative="1" as="geometry">
            <mxPoint x="260" y="202" as="sourcePoint" />
            <mxPoint x="250" y="202" as="targetPoint" />
          </mxGeometry>
        </mxCell>
        <mxCell id="q6aTFTW4SAQcoKAlonwN-4" value="" style="endArrow=classic;html=1;rounded=0;entryX=0;entryY=0.5;entryDx=0;entryDy=0;" edge="1" parent="1" target="dmeGNJuSnEq-PpqVmAJT-6">
          <mxGeometry width="50" height="50" relative="1" as="geometry">
            <mxPoint x="255" y="202" as="sourcePoint" />
            <mxPoint x="305" y="259.5" as="targetPoint" />
            <Array as="points">
              <mxPoint x="255" y="280" />
            </Array>
          </mxGeometry>
        </mxCell>
        <mxCell id="q6aTFTW4SAQcoKAlonwN-5" value="" style="endArrow=none;html=1;rounded=0;" edge="1" parent="1">
          <mxGeometry width="50" height="50" relative="1" as="geometry">
            <mxPoint x="246" y="202" as="sourcePoint" />
            <mxPoint x="236" y="202" as="targetPoint" />
          </mxGeometry>
        </mxCell>
        <mxCell id="q6aTFTW4SAQcoKAlonwN-6" value="" style="endArrow=none;html=1;rounded=0;" edge="1" parent="1">
          <mxGeometry width="50" height="50" relative="1" as="geometry">
            <mxPoint x="231" y="202" as="sourcePoint" />
            <mxPoint x="221" y="202" as="targetPoint" />
          </mxGeometry>
        </mxCell>
        <mxCell id="q6aTFTW4SAQcoKAlonwN-7" value="" style="endArrow=none;html=1;rounded=0;" edge="1" parent="1">
          <mxGeometry width="50" height="50" relative="1" as="geometry">
            <mxPoint x="214" y="202" as="sourcePoint" />
            <mxPoint x="204" y="202" as="targetPoint" />
          </mxGeometry>
        </mxCell>
        <mxCell id="q6aTFTW4SAQcoKAlonwN-8" value="" style="endArrow=none;html=1;rounded=0;arcSize=10;" edge="1" parent="1">
          <mxGeometry width="50" height="50" relative="1" as="geometry">
            <mxPoint x="201" y="202" as="sourcePoint" />
            <mxPoint x="191" y="202" as="targetPoint" />
          </mxGeometry>
        </mxCell>
        <mxCell id="q6aTFTW4SAQcoKAlonwN-9" value="" style="endArrow=classic;html=1;rounded=0;entryX=0;entryY=0.5;entryDx=0;entryDy=0;" edge="1" parent="1" target="dmeGNJuSnEq-PpqVmAJT-9">
          <mxGeometry width="50" height="50" relative="1" as="geometry">
            <mxPoint x="241" y="202" as="sourcePoint" />
            <mxPoint x="305" y="280" as="targetPoint" />
            <Array as="points">
              <mxPoint x="240" y="300" />
            </Array>
          </mxGeometry>
        </mxCell>
        <mxCell id="q6aTFTW4SAQcoKAlonwN-10" value="" style="endArrow=classic;html=1;rounded=0;entryX=0;entryY=0.5;entryDx=0;entryDy=0;" edge="1" parent="1" target="dmeGNJuSnEq-PpqVmAJT-10">
          <mxGeometry width="50" height="50" relative="1" as="geometry">
            <mxPoint x="226" y="202" as="sourcePoint" />
            <mxPoint x="304" y="300" as="targetPoint" />
            <Array as="points">
              <mxPoint x="226" y="320" />
            </Array>
          </mxGeometry>
        </mxCell>
        <mxCell id="q6aTFTW4SAQcoKAlonwN-11" value="" style="endArrow=classic;html=1;rounded=0;entryX=0;entryY=0.5;entryDx=0;entryDy=0;" edge="1" parent="1" target="dmeGNJuSnEq-PpqVmAJT-11">
          <mxGeometry width="50" height="50" relative="1" as="geometry">
            <mxPoint x="209" y="202" as="sourcePoint" />
            <mxPoint x="302" y="320" as="targetPoint" />
            <Array as="points">
              <mxPoint x="209" y="340" />
            </Array>
          </mxGeometry>
        </mxCell>
        <mxCell id="q6aTFTW4SAQcoKAlonwN-12" value="" style="endArrow=classic;html=1;rounded=0;entryX=0;entryY=0.5;entryDx=0;entryDy=0;" edge="1" parent="1" target="dmeGNJuSnEq-PpqVmAJT-12">
          <mxGeometry width="50" height="50" relative="1" as="geometry">
            <mxPoint x="196" y="202" as="sourcePoint" />
            <mxPoint x="306" y="340" as="targetPoint" />
            <Array as="points">
              <mxPoint x="196" y="360" />
            </Array>
          </mxGeometry>
        </mxCell>
        <mxCell id="q6aTFTW4SAQcoKAlonwN-13" value="" style="endArrow=none;html=1;rounded=0;arcSize=10;" edge="1" parent="1">
          <mxGeometry width="50" height="50" relative="1" as="geometry">
            <mxPoint x="476" y="202" as="sourcePoint" />
            <mxPoint x="466" y="202" as="targetPoint" />
          </mxGeometry>
        </mxCell>
        <mxCell id="q6aTFTW4SAQcoKAlonwN-15" value="" style="endArrow=none;html=1;rounded=0;arcSize=10;" edge="1" parent="1">
          <mxGeometry width="50" height="50" relative="1" as="geometry">
            <mxPoint x="490" y="202" as="sourcePoint" />
            <mxPoint x="480" y="202" as="targetPoint" />
          </mxGeometry>
        </mxCell>
        <mxCell id="q6aTFTW4SAQcoKAlonwN-16" value="" style="endArrow=none;html=1;rounded=0;arcSize=10;" edge="1" parent="1">
          <mxGeometry width="50" height="50" relative="1" as="geometry">
            <mxPoint x="507" y="202" as="sourcePoint" />
            <mxPoint x="497" y="202" as="targetPoint" />
          </mxGeometry>
        </mxCell>
        <mxCell id="q6aTFTW4SAQcoKAlonwN-17" value="" style="endArrow=none;html=1;rounded=0;arcSize=10;" edge="1" parent="1">
          <mxGeometry width="50" height="50" relative="1" as="geometry">
            <mxPoint x="522" y="202" as="sourcePoint" />
            <mxPoint x="512" y="202" as="targetPoint" />
          </mxGeometry>
        </mxCell>
        <mxCell id="q6aTFTW4SAQcoKAlonwN-18" value="" style="endArrow=none;html=1;rounded=0;arcSize=10;" edge="1" parent="1">
          <mxGeometry width="50" height="50" relative="1" as="geometry">
            <mxPoint x="536" y="202" as="sourcePoint" />
            <mxPoint x="526" y="202" as="targetPoint" />
          </mxGeometry>
        </mxCell>
        <mxCell id="q6aTFTW4SAQcoKAlonwN-19" value="" style="endArrow=none;html=1;rounded=0;arcSize=10;" edge="1" parent="1">
          <mxGeometry width="50" height="50" relative="1" as="geometry">
            <mxPoint x="550" y="202" as="sourcePoint" />
            <mxPoint x="540" y="202" as="targetPoint" />
          </mxGeometry>
        </mxCell>
        <mxCell id="q6aTFTW4SAQcoKAlonwN-20" value="" style="endArrow=none;html=1;rounded=0;arcSize=10;" edge="1" parent="1">
          <mxGeometry width="50" height="50" relative="1" as="geometry">
            <mxPoint x="563" y="202" as="sourcePoint" />
            <mxPoint x="553" y="202" as="targetPoint" />
          </mxGeometry>
        </mxCell>
        <mxCell id="q6aTFTW4SAQcoKAlonwN-21" value="" style="endArrow=none;html=1;rounded=0;arcSize=10;" edge="1" parent="1">
          <mxGeometry width="50" height="50" relative="1" as="geometry">
            <mxPoint x="576" y="202" as="sourcePoint" />
            <mxPoint x="566" y="202" as="targetPoint" />
          </mxGeometry>
        </mxCell>
        <mxCell id="q6aTFTW4SAQcoKAlonwN-22" value="" style="endArrow=classic;html=1;rounded=0;" edge="1" parent="1">
          <mxGeometry width="50" height="50" relative="1" as="geometry">
            <mxPoint x="471" y="202" as="sourcePoint" />
            <mxPoint x="450" y="220" as="targetPoint" />
            <Array as="points">
              <mxPoint x="471" y="220" />
            </Array>
          </mxGeometry>
        </mxCell>
        <mxCell id="q6aTFTW4SAQcoKAlonwN-23" value="" style="endArrow=classic;html=1;rounded=0;entryX=1;entryY=0.5;entryDx=0;entryDy=0;" edge="1" parent="1" target="xkA8Z7V0szeuS40BgDB5-15">
          <mxGeometry width="50" height="50" relative="1" as="geometry">
            <mxPoint x="485" y="202" as="sourcePoint" />
            <mxPoint x="464" y="220" as="targetPoint" />
            <Array as="points">
              <mxPoint x="485" y="240" />
            </Array>
          </mxGeometry>
        </mxCell>
        <mxCell id="q6aTFTW4SAQcoKAlonwN-24" value="" style="endArrow=classic;html=1;rounded=0;entryX=1;entryY=0.5;entryDx=0;entryDy=0;" edge="1" parent="1" target="xkA8Z7V0szeuS40BgDB5-16">
          <mxGeometry width="50" height="50" relative="1" as="geometry">
            <mxPoint x="502" y="202" as="sourcePoint" />
            <mxPoint x="467" y="240" as="targetPoint" />
            <Array as="points">
              <mxPoint x="502" y="260" />
            </Array>
          </mxGeometry>
        </mxCell>
        <mxCell id="q6aTFTW4SAQcoKAlonwN-25" value="" style="endArrow=classic;html=1;rounded=0;entryX=1;entryY=0.5;entryDx=0;entryDy=0;" edge="1" parent="1" target="xkA8Z7V0szeuS40BgDB5-17">
          <mxGeometry width="50" height="50" relative="1" as="geometry">
            <mxPoint x="517" y="202.5" as="sourcePoint" />
            <mxPoint x="465" y="260.5" as="targetPoint" />
            <Array as="points">
              <mxPoint x="517" y="280" />
            </Array>
          </mxGeometry>
        </mxCell>
        <mxCell id="q6aTFTW4SAQcoKAlonwN-26" value="" style="endArrow=classic;html=1;rounded=0;entryX=1;entryY=0.5;entryDx=0;entryDy=0;" edge="1" parent="1" target="xkA8Z7V0szeuS40BgDB5-18">
          <mxGeometry width="50" height="50" relative="1" as="geometry">
            <mxPoint x="531" y="202.5" as="sourcePoint" />
            <mxPoint x="464" y="280" as="targetPoint" />
            <Array as="points">
              <mxPoint x="531" y="300" />
            </Array>
          </mxGeometry>
        </mxCell>
        <mxCell id="q6aTFTW4SAQcoKAlonwN-27" value="" style="endArrow=classic;html=1;rounded=0;entryX=1;entryY=0.5;entryDx=0;entryDy=0;" edge="1" parent="1" target="xkA8Z7V0szeuS40BgDB5-19">
          <mxGeometry width="50" height="50" relative="1" as="geometry">
            <mxPoint x="545" y="201.5" as="sourcePoint" />
            <mxPoint x="464" y="299" as="targetPoint" />
            <Array as="points">
              <mxPoint x="545" y="320" />
            </Array>
          </mxGeometry>
        </mxCell>
        <mxCell id="q6aTFTW4SAQcoKAlonwN-28" value="" style="endArrow=classic;html=1;rounded=0;entryX=1;entryY=0.5;entryDx=0;entryDy=0;" edge="1" parent="1" target="xkA8Z7V0szeuS40BgDB5-20">
          <mxGeometry width="50" height="50" relative="1" as="geometry">
            <mxPoint x="558" y="202.5" as="sourcePoint" />
            <mxPoint x="463" y="321" as="targetPoint" />
            <Array as="points">
              <mxPoint x="558" y="340" />
            </Array>
          </mxGeometry>
        </mxCell>
        <mxCell id="q6aTFTW4SAQcoKAlonwN-29" value="" style="endArrow=classic;html=1;rounded=0;entryX=1;entryY=0.5;entryDx=0;entryDy=0;" edge="1" parent="1" target="xkA8Z7V0szeuS40BgDB5-21">
          <mxGeometry width="50" height="50" relative="1" as="geometry">
            <mxPoint x="571" y="202.5" as="sourcePoint" />
            <mxPoint x="463" y="340" as="targetPoint" />
            <Array as="points">
              <mxPoint x="571" y="360" />
            </Array>
          </mxGeometry>
        </mxCell>
      </root>
    </mxGraphModel>
  </diagram>
</mxfile>
